<svg
id="Layer_1"
data-name="Layer 1"
xmlns="http://www.w3.org/2000/svg"
viewBox="0 0 1920 1080"
>
<defs>
  <style>
    .cls-1 {
      fill: hsl(50, 61%, 77%);
    }
    .cls-2,
    .cls-3,
    .cls-7 {
      fill: hsl(50, 50%, 21%);
    }
    .cls-3 {
      font-size: 89.8px;
      font-family: Montserrat-ExtraBold, Montserrat;
      font-weight: 700;
    }
    .cls-4 {
      letter-spacing: -0.01em;
    }
    .cls-5 {
      letter-spacing: -0.01em;
    }
    .cls-6 {
      font-size: 71px;
      font-family: Montserrat-ExtraBoldItalic, Montserrat;
      font-style: italic;
    }
    .cls-7 {
      font-size: 52.94px;
      font-family: Montserrat-Regular, Montserrat;
    }
    .cls-8 {
      letter-spacing: 0em;
    }
    .cls-9 {
      letter-spacing: -0.01em;
    }
    .cls-10 {
      letter-spacing: -0.01em;
    }
    .cls-11 {
      letter-spacing: 0em;
    }
    .cls-12 {
      letter-spacing: 0.34em;
    }
    .cls-13 {
      letter-spacing: -0.01em;
    }
    .cls-14 {
      opacity: 0.65;
    }
  </style>
</defs>
<title>Artboard 1</title>
<rect id="Background" class="cls-1" width="1920" height="1080" />

  <g id='_11' data-name='11'>
    <path fill='hsl(50, 50%, 21%)' d='M654.93,396.18H174.86a63.48,63.48,0,0,0-63.41,63.41V1650.86a63.49,63.49,0,0,0,63.41,63.42H654.93a63.48,63.48,0,0,0,63.41-63.42V459.59A63.47,63.47,0,0,0,654.93,396.18Zm38.41,1254.68a38.45,38.45,0,0,1-38.41,38.42H174.86a38.45,38.45,0,0,1-38.41-38.42V477.74h.05a15.5,15.5,0,0,1,15.5-15.5H676.5a15.5,15.5,0,0,1,15.5,15.5h1.34Z' />
    <path fill='hsl(50, 50%, 21%)' d='M495.8,696.72H345.88a4.69,4.69,0,0,0-3.41,7.9l32.36,34.28a4.67,4.67,0,0,0,3.41,1.47H487.33a4.69,4.69,0,0,0,4.55-3.56l8.47-34.28A4.68,4.68,0,0,0,495.8,696.72Z' />
    <path fill='hsl(50, 50%, 21%)' d='M402,845.72l63.11,54.8a4.7,4.7,0,0,1,1.54,4.36l-7.52,42a4.69,4.69,0,0,1-7.77,2.64L330.16,839.33a4.67,4.67,0,0,1-1.42-4.49l8.38-37.33a4.69,4.69,0,0,1,4.58-3.66h125a4.69,4.69,0,0,1,3.78,1.92L495.59,830a4.69,4.69,0,0,1-3.78,7.46H405.08A4.68,4.68,0,0,0,402,845.72Z' />
  </g>

<g id="Description">
  <text class="cls-3" transform="translate(784.8 818.12)">
    <tspan class="cls-4">
      redmi note 10
      <tspan class="cls-6" y="0">beta</tspan>
    </tspan>
  </text>
  <text class="cls-7" transform="translate(784.8 892.47)">
    Maintainer:
    <tspan class="cls-8" x="312.9" y="0">ben</tspan>
  </text>
</g>
<g id="Android_13" data-name="Android 13">
  <g id="g6323">
    <path
      class="cls-2"
      d="M1835.69,137.06c-4.28-5.31-5.89-9.68-6.46-17.5-.53-7.22-2.61-10-9.77-13-5-2.13-9.61-6-11.86-9.93-4.53-8-7.62-9.9-15.06-9.44-7.87.49-12.08-.44-17.36-3.86-6.89-4.46-11.06-4.46-17.94,0-5.28,3.42-9.5,4.35-17.36,3.86-4.53-.28-6.91.32-9.85,2.5-1.82,1.36-2.25,1.92-5.19,6.9a25.75,25.75,0,0,1-12.49,10.2c-6.42,2.59-8.6,5.78-9.26,13.57s-2,11.31-6.37,16.74c-4.75,5.93-5.16,9.79-1.82,17a25,25,0,0,1,1.95,17.4c-1.48,7.16.08,11.11,6.18,15.59,5.38,4,7.83,7.66,10.17,15.39,1.9,6.27,5.06,8.89,12.16,10.1,6.85,1.17,10.79,3.24,15.64,8.18,2.91,3,5,4.33,7.47,4.92,2.74.65,5,.4,9.3-1a24.69,24.69,0,0,1,17,0c7.49,2.46,11.34,1.55,16.7-3.94,4.83-5,8.77-7,15.64-8.2,7.1-1.21,10.26-3.83,12.15-10.1,2.35-7.73,4.8-11.44,10.18-15.39,6.1-4.48,7.66-8.43,6.17-15.59a25,25,0,0,1,2-17.4C1840.86,146.84,1840.45,143,1835.69,137.06Zm-79.11,56.84h-13.81V126.15h-11.88V112.34h25.69Zm9.17,3.25,1.82-4.55,1.43-3.45,1.78-4.83c12.33,4.22,23.64-4.31,23.77-15.78,0-12.56-9.69-17.63-18.5-18.24l-5.66-.7,5.75-11.85,5.8-11.59-6.82-.09-6.92-.09V112.34h36.22l-6.9,13.8-6.9,13.8c12.18,6.13,17.93,17,17.93,28.28A31.17,31.17,0,0,1,1765.75,197.15Z"
    />
  </g>
</g>
<g id="New_release" data-name="New release" class="cls-14">
  <polygon
    class="cls-2"
    points="845.16 453.84 810.75 412.29 792.6 412.29 792.6 490.25 814.2 490.25 814.2 448.7 848.62 490.25 866.77 490.25 866.77 412.29 845.16 412.29 845.16 453.84"
  />
  <polygon
    class="cls-2"
    points="902.18 458.95 936.82 458.95 936.82 442.47 902.18 442.47 902.18 429.33 941.5 429.33 941.5 412.29 880.36 412.29 880.36 490.25 942.94 490.25 942.94 473.21 902.18 473.21 902.18 458.95"
  />
  <polygon
    class="cls-2"
    points="1036.98 462.51 1021.24 412.29 1000.97 412.29 984.46 462.05 968.78 412.29 946.06 412.29 971.34 490.25 994.95 490.25 1010.53 442.77 1025.47 490.25 1049.08 490.25 1074.36 412.29 1053.31 412.29 1036.98 462.51"
  />
  <path
    class="cls-2"
    d="M1178.37,456.34a27,27,0,0,0,4.23-15.2,27.73,27.73,0,0,0-4.23-15.43,27,27,0,0,0-12-10,45,45,0,0,0-18.43-3.45h-35.64v78h22.05V469.53h12l14.13,20.72h23.61l-16.84-24.55A26.55,26.55,0,0,0,1178.37,456.34Zm-21.44-23.67q3.4,3,3.4,8.47a10.57,10.57,0,0,1-3.4,8.35q-3.39,3-10.3,3h-12.25V429.67h12.25Q1153.55,429.67,1156.93,432.67Z"
  />
  <polygon
    class="cls-2"
    points="1214.57 458.95 1249.2 458.95 1249.2 442.47 1214.57 442.47 1214.57 429.33 1253.88 429.33 1253.88 412.29 1192.74 412.29 1192.74 490.25 1255.33 490.25 1255.33 473.21 1214.57 473.21 1214.57 458.95"
  />
  <polygon
    class="cls-2"
    points="1287.62 412.29 1265.57 412.29 1265.57 490.25 1324.82 490.25 1324.82 472.76 1287.62 472.76 1287.62 412.29"
  />
  <polygon
    class="cls-2"
    points="1353.33 458.95 1387.96 458.95 1387.96 442.47 1353.33 442.47 1353.33 429.33 1392.64 429.33 1392.64 412.29 1331.5 412.29 1331.5 490.25 1394.09 490.25 1394.09 473.21 1353.33 473.21 1353.33 458.95"
  />
  <path
    class="cls-2"
    d="M1429.39,412.29l-34.41,78h22.49l6.08-15.15h33.06l6.08,15.15h22.94l-34.52-78Zm.69,46.55,10-24.92,10,24.92Z"
  />
  <path
    class="cls-2"
    d="M1543.1,449.88a36.11,36.11,0,0,0-8.63-4q-4.74-1.5-9.47-2.51c-3.16-.66-6-1.31-8.69-1.95A21.25,21.25,0,0,1,1510,439a4.6,4.6,0,0,1-2.39-4.06,5.58,5.58,0,0,1,1.23-3.56,8.34,8.34,0,0,1,4-2.51,23.48,23.48,0,0,1,7.36-.95,39.51,39.51,0,0,1,10.58,1.51,52.38,52.38,0,0,1,11,4.51l6.79-16.37a48,48,0,0,0-13.19-5.07,66.34,66.34,0,0,0-15.09-1.73q-11.48,0-19.16,3.46a26.65,26.65,0,0,0-11.53,9.13,22.14,22.14,0,0,0-3.84,12.69,19.68,19.68,0,0,0,2.45,10.3,20,20,0,0,0,6.35,6.58,37.64,37.64,0,0,0,8.63,4.06,89.87,89.87,0,0,0,9.47,2.56q4.72,1,8.63,2a22,22,0,0,1,6.35,2.56,4.8,4.8,0,0,1,2.45,4.23,4.73,4.73,0,0,1-1.28,3.29,9,9,0,0,1-4.07,2.22,26.22,26.22,0,0,1-7.35.84,45.12,45.12,0,0,1-13.64-2.17,51,51,0,0,1-12.09-5.52l-7.23,16.26a47.55,47.55,0,0,0,14.42,6.18,70.09,70.09,0,0,0,18.43,2.4q11.58,0,19.21-3.45a26.52,26.52,0,0,0,11.47-9.19,22.08,22.08,0,0,0,3.84-12.53,19.88,19.88,0,0,0-2.39-10.19A19.49,19.49,0,0,0,1543.1,449.88Z"
  />
  <polygon
    class="cls-2"
    points="1581.74 473.21 1581.74 458.95 1616.37 458.95 1616.37 442.47 1581.74 442.47 1581.74 429.33 1621.05 429.33 1621.05 412.29 1559.91 412.29 1559.91 490.25 1622.5 490.25 1622.5 473.21 1581.74 473.21"
  />
</g>
</svg>